# xmcd
#
# Track frame offsets: 
#        150
#        3907
#        19417
#        51660
#        70625
#        88872
#        111857
#        145162
#        156340
#        177642
#        198725
#        212002
#
# Disc length: 2907 seconds
#
# Revision: 3
# Processed by: cddbd v1.5.2PL0 Copyright (c) Steve Scherf et al.
# Submitted via: ExactAudioCopy v1.0b3
#
DISCID=b30b590c
DTITLE=Various Artist - Dai hoi Nhac Tre Hai Au
DYEAR=1991
DGENRE=
TTITLE0=Kieu Nga, Trung Hanh, Tuyet Nhung - Gioi thieu
TTITLE1=Kieu Nga - Vu khuc xuan nong
TTITLE2=Ngoc Lan - Song bien muon trung
TTITLE3=Trung Hanh - Nhung mua nang dep
TTITLE4=Kieu Nga - Tinh dep thiet tha
TTITLE5=Kenny - Thu tuong tu
TTITLE6=Kieu Nga - Tinh dep xot xa
TTITLE7=Kenny - Nguon song doi anh
TTITLE8=Tuyet Nhung - Chi co anh trong tim
TTITLE9=Ngoc Lan - Vang bong nguoi yeu
TTITLE10=Thuy Vi - Mot nu hon nong
TTITLE11=hoa tau - Loi ket
EXTD=
EXTT0=
EXTT1=
EXTT2=
EXTT3=
EXTT4=
EXTT5=
EXTT6=
EXTT7=
EXTT8=
EXTT9=
EXTT10=
EXTT11=
PLAYORDER=
